<svg width="20" height="21" viewBox="0 0 20 21" fill="none" xmlns="http://www.w3.org/2000/svg">
<path fill-rule="evenodd" clip-rule="evenodd" d="M11.4312 13.9555C12.6059 13.9555 13.562 14.9056 13.562 16.0735V19.0773C13.562 19.3282 13.7629 19.5294 14.0205 19.5352H15.88C17.3454 19.5352 18.5366 18.3576 18.5366 16.9104V8.39136C18.5298 7.89334 18.2927 7.42462 17.8859 7.11311L11.4537 1.97864C10.5902 1.29411 9.38244 1.29411 8.5161 1.9806L2.1278 7.11116C1.70537 7.43243 1.46829 7.90115 1.46341 8.40796V16.9104C1.46341 18.3576 2.65463 19.5352 4.12 19.5352H5.99707C6.26146 19.5352 6.4761 19.3253 6.4761 19.0675C6.4761 19.0109 6.48293 18.9542 6.49463 18.9005V16.0735C6.49463 14.9125 7.44488 13.9633 8.61073 13.9555H11.4312ZM15.88 21H14.0029C12.9278 20.9746 12.0985 20.1299 12.0985 19.0773V16.0735C12.0985 15.7132 11.799 15.4202 11.4312 15.4202H8.61561C8.25561 15.4222 7.95805 15.7161 7.95805 16.0735V19.0675C7.95805 19.1407 7.94829 19.211 7.92781 19.2774C7.82244 20.2442 6.99707 21 5.99707 21H4.12C1.8478 21 0 19.1651 0 16.9104V8.40112C0.0097561 7.43048 0.456585 6.54186 1.22829 5.95693L7.6039 0.835157C9.0078 -0.27806 10.9639 -0.27806 12.3649 0.833204L18.7863 5.95986C19.5405 6.53502 19.9873 7.42169 20 8.38062V16.9104C20 19.1651 18.1522 21 15.88 21Z" fill="#818493"/>
</svg>
